<mxfile host="Electron" agent="Mozilla/5.0 (Windows NT 10.0; Win64; x64) AppleWebKit/537.36 (KHTML, like Gecko) draw.io/24.7.17 Chrome/128.0.6613.36 Electron/32.0.1 Safari/537.36" version="24.7.17">
  <diagram name="Page-1" id="-i6-PY1OygrmI1szuQVb">
    <mxGraphModel dx="1863" dy="614" grid="1" gridSize="10" guides="1" tooltips="1" connect="1" arrows="1" fold="1" page="1" pageScale="1" pageWidth="827" pageHeight="1169" math="1" shadow="0">
      <root>
        <mxCell id="0" />
        <mxCell id="1" parent="0" />
        <mxCell id="P7D8G5JNVnCzqiyZau9e-108" value="" style="rounded=1;whiteSpace=wrap;html=1;strokeColor=#9EDFFF;fillColor=#EBF6FF;" parent="1" vertex="1">
          <mxGeometry x="477" y="560" width="339" height="170" as="geometry" />
        </mxCell>
        <mxCell id="P7D8G5JNVnCzqiyZau9e-77" value="" style="rounded=1;whiteSpace=wrap;html=1;fillColor=#E1CFEB;strokeColor=#CE97D7;" parent="1" vertex="1">
          <mxGeometry x="286" y="390" width="234" height="150" as="geometry" />
        </mxCell>
        <mxCell id="P7D8G5JNVnCzqiyZau9e-92" value="" style="html=1;shadow=0;dashed=0;align=center;verticalAlign=middle;shape=mxgraph.arrows2.bendArrow;dy=5;dx=20;notch=0;arrowHead=30.63;rounded=1;rotation=-180;strokeColor=#b85450;fillColor=#f8d4d3;flipH=1;" parent="1" vertex="1">
          <mxGeometry x="244.5" y="387.5" width="47.5" height="110" as="geometry" />
        </mxCell>
        <mxCell id="P7D8G5JNVnCzqiyZau9e-71" value="" style="rounded=1;whiteSpace=wrap;html=1;strokeColor=#9EDFFF;fillColor=#EBF6FF;" parent="1" vertex="1">
          <mxGeometry x="41" y="560" width="339" height="170" as="geometry" />
        </mxCell>
        <mxCell id="P7D8G5JNVnCzqiyZau9e-60" value="" style="rounded=1;whiteSpace=wrap;html=1;fillColor=#C9F5D0;strokeColor=none;" parent="1" vertex="1">
          <mxGeometry x="61" y="680" width="299" height="40" as="geometry" />
        </mxCell>
        <mxCell id="P7D8G5JNVnCzqiyZau9e-59" value="" style="rounded=1;whiteSpace=wrap;html=1;fillColor=#F5EFC7;strokeColor=none;" parent="1" vertex="1">
          <mxGeometry x="61" y="635" width="289" height="40" as="geometry" />
        </mxCell>
        <mxCell id="P7D8G5JNVnCzqiyZau9e-57" value="" style="rounded=1;whiteSpace=wrap;html=1;fillColor=#FFDBDB;strokeColor=none;" parent="1" vertex="1">
          <mxGeometry x="61" y="590" width="270" height="40" as="geometry" />
        </mxCell>
        <mxCell id="P7D8G5JNVnCzqiyZau9e-41" value="" style="rounded=1;whiteSpace=wrap;html=1;fillColor=#FFE4CF;strokeColor=#c88c5b;" parent="1" vertex="1">
          <mxGeometry x="-10" y="380" width="130" height="100" as="geometry" />
        </mxCell>
        <mxCell id="P7D8G5JNVnCzqiyZau9e-37" value="" style="rounded=1;whiteSpace=wrap;html=1;fillColor=#FFDBDB;strokeColor=#b85450;" parent="1" vertex="1">
          <mxGeometry x="100" y="180" width="380" height="190" as="geometry" />
        </mxCell>
        <mxCell id="P7D8G5JNVnCzqiyZau9e-3" value="$$\bar{A}=Q^{-1}AQ=\begin{bmatrix}\color{brown}1&amp;amp;1&amp;amp;&amp;amp;&amp;amp;&amp;amp;\\&amp;amp;\color{brown}1&amp;amp;&amp;amp;&amp;amp;\\&amp;amp;&amp;amp;\color{orange}2&amp;amp;&amp;amp;&amp;amp;\\&amp;amp;&amp;amp;&amp;amp;\color{orange}2&amp;amp;1&amp;amp;\\&amp;amp;&amp;amp;&amp;amp;&amp;amp;\color{orange}2\\&amp;amp;&amp;amp;&amp;amp;&amp;amp;&amp;amp;\color{green}5\end{bmatrix}$$" style="text;html=1;align=center;verticalAlign=middle;whiteSpace=wrap;rounded=0;" parent="1" vertex="1">
          <mxGeometry x="510" y="221.5" width="210" height="130" as="geometry" />
        </mxCell>
        <mxCell id="P7D8G5JNVnCzqiyZau9e-4" value="$$A = \begin{bmatrix}&lt;br&gt;2 &amp;amp;&amp;amp; &amp;amp; &amp;amp; 1 &amp;amp;&amp;nbsp; \\&lt;br&gt;-1 &amp;amp; 2 &amp;amp; &amp;amp; &amp;amp;&amp;nbsp; &amp;amp; -1 \\&lt;br&gt;&amp;amp; &amp;amp; 2 &amp;amp;&amp;nbsp; &amp;amp;&amp;nbsp; &amp;amp; 6 \\&lt;br&gt;1 &amp;amp;&amp;nbsp; &amp;amp; &amp;amp;0 &amp;amp; &amp;amp;&amp;nbsp; \\&lt;br&gt;&amp;nbsp;&amp;amp; &amp;amp;&amp;nbsp; &amp;amp;&amp;nbsp; &amp;amp; 2 &amp;amp; 4 \\&lt;br&gt;&amp;amp; &amp;amp;&amp;nbsp; &amp;amp;&amp;nbsp; &amp;amp;&amp;nbsp; &amp;amp; 5&lt;br&gt;\end{bmatrix}$$" style="text;html=1;align=center;verticalAlign=middle;whiteSpace=wrap;rounded=0;" parent="1" vertex="1">
          <mxGeometry x="-150" y="210" width="250" height="160" as="geometry" />
        </mxCell>
        <mxCell id="P7D8G5JNVnCzqiyZau9e-6" value="$$\det(\lambda I-A)=0$$" style="text;html=1;align=center;verticalAlign=middle;whiteSpace=wrap;rounded=0;" parent="1" vertex="1">
          <mxGeometry x="30" y="440" width="60" height="30" as="geometry" />
        </mxCell>
        <mxCell id="P7D8G5JNVnCzqiyZau9e-10" value="$$\color{brown}\lambda_1=1$$" style="text;html=1;align=center;verticalAlign=middle;whiteSpace=wrap;rounded=0;" parent="1" vertex="1">
          <mxGeometry x="71" y="595" width="60" height="30" as="geometry" />
        </mxCell>
        <mxCell id="P7D8G5JNVnCzqiyZau9e-11" value="$$\color{orange}\lambda_2=2$$" style="text;html=1;align=center;verticalAlign=middle;whiteSpace=wrap;rounded=0;" parent="1" vertex="1">
          <mxGeometry x="71" y="640" width="60" height="30" as="geometry" />
        </mxCell>
        <mxCell id="P7D8G5JNVnCzqiyZau9e-12" value="$$\color{green}\lambda_3=5$$" style="text;html=1;align=center;verticalAlign=middle;whiteSpace=wrap;rounded=0;" parent="1" vertex="1">
          <mxGeometry x="71" y="685" width="60" height="30" as="geometry" />
        </mxCell>
        <mxCell id="P7D8G5JNVnCzqiyZau9e-14" value="代数重数" style="text;html=1;align=center;verticalAlign=middle;whiteSpace=wrap;rounded=0;spacing=2;spacingBottom=0;fontFamily=Comic Sans MS;" parent="1" vertex="1">
          <mxGeometry x="145.5" y="560" width="97" height="30" as="geometry" />
        </mxCell>
        <mxCell id="P7D8G5JNVnCzqiyZau9e-15" value="几何重数" style="text;html=1;align=center;verticalAlign=middle;whiteSpace=wrap;rounded=0;fontFamily=Comic Sans MS;" parent="1" vertex="1">
          <mxGeometry x="238.5" y="560" width="85" height="30" as="geometry" />
        </mxCell>
        <mxCell id="P7D8G5JNVnCzqiyZau9e-17" value="原矩阵&lt;div&gt;Original Matrix&lt;/div&gt;" style="text;html=1;align=center;verticalAlign=middle;whiteSpace=wrap;rounded=0;fontFamily=Comic Sans MS;" parent="1" vertex="1">
          <mxGeometry x="-70" y="190" width="120" height="30" as="geometry" />
        </mxCell>
        <mxCell id="P7D8G5JNVnCzqiyZau9e-18" value="$$(\lambda I-A)v=0$$" style="text;html=1;align=center;verticalAlign=middle;whiteSpace=wrap;rounded=0;" parent="1" vertex="1">
          <mxGeometry x="190" y="275" width="60" height="30" as="geometry" />
        </mxCell>
        <mxCell id="P7D8G5JNVnCzqiyZau9e-20" value="特征方程 Characteristic Formula" style="text;html=1;align=center;verticalAlign=middle;whiteSpace=wrap;rounded=0;fontFamily=Comic Sans MS;" parent="1" vertex="1">
          <mxGeometry y="400" width="120" height="30" as="geometry" />
        </mxCell>
        <mxCell id="P7D8G5JNVnCzqiyZau9e-21" value="定义式&amp;nbsp;&lt;div&gt;Definition&lt;/div&gt;" style="text;html=1;align=center;verticalAlign=middle;whiteSpace=wrap;rounded=0;fontFamily=Comic Sans MS;" parent="1" vertex="1">
          <mxGeometry x="100" y="200" width="120" height="30" as="geometry" />
        </mxCell>
        <mxCell id="P7D8G5JNVnCzqiyZau9e-27" value="$$v\neq 0$$" style="text;html=1;align=center;verticalAlign=middle;whiteSpace=wrap;rounded=0;" parent="1" vertex="1">
          <mxGeometry x="170" y="295" width="60" height="30" as="geometry" />
        </mxCell>
        <mxCell id="P7D8G5JNVnCzqiyZau9e-40" value="" style="rounded=1;whiteSpace=wrap;html=1;strokeColor=#FF8B87;fillColor=#F7F3F0;" parent="1" vertex="1">
          <mxGeometry x="280" y="200" width="180" height="145" as="geometry" />
        </mxCell>
        <mxCell id="P7D8G5JNVnCzqiyZau9e-30" value="" style="endArrow=classic;html=1;rounded=0;" parent="1" edge="1">
          <mxGeometry width="50" height="50" relative="1" as="geometry">
            <mxPoint x="300" y="325" as="sourcePoint" />
            <mxPoint x="300" y="215" as="targetPoint" />
          </mxGeometry>
        </mxCell>
        <mxCell id="P7D8G5JNVnCzqiyZau9e-31" value="" style="endArrow=classic;html=1;rounded=0;" parent="1" edge="1">
          <mxGeometry width="50" height="50" relative="1" as="geometry">
            <mxPoint x="300" y="324.58" as="sourcePoint" />
            <mxPoint x="420" y="325" as="targetPoint" />
          </mxGeometry>
        </mxCell>
        <mxCell id="P7D8G5JNVnCzqiyZau9e-33" value="" style="endArrow=classic;dashed=1;html=1;rounded=0;endFill=1;endSize=4;" parent="1" edge="1">
          <mxGeometry width="50" height="50" relative="1" as="geometry">
            <mxPoint x="300" y="325" as="sourcePoint" />
            <mxPoint x="400" y="275" as="targetPoint" />
          </mxGeometry>
        </mxCell>
        <mxCell id="P7D8G5JNVnCzqiyZau9e-35" value="" style="endArrow=classic;dashed=1;html=1;rounded=0;endFill=1;endSize=4;" parent="1" edge="1">
          <mxGeometry width="50" height="50" relative="1" as="geometry">
            <mxPoint x="300" y="325" as="sourcePoint" />
            <mxPoint x="440" y="255" as="targetPoint" />
          </mxGeometry>
        </mxCell>
        <mxCell id="P7D8G5JNVnCzqiyZau9e-36" value="$$v$$" style="text;html=1;align=center;verticalAlign=middle;whiteSpace=wrap;rounded=0;" parent="1" vertex="1">
          <mxGeometry x="359" y="250" width="60" height="30" as="geometry" />
        </mxCell>
        <mxCell id="P7D8G5JNVnCzqiyZau9e-38" value="$$Av$$" style="text;html=1;align=center;verticalAlign=middle;whiteSpace=wrap;rounded=0;" parent="1" vertex="1">
          <mxGeometry x="400" y="229" width="60" height="30" as="geometry" />
        </mxCell>
        <mxCell id="P7D8G5JNVnCzqiyZau9e-48" value="&lt;div&gt;Jordan 标准型&lt;/div&gt;" style="text;html=1;align=center;verticalAlign=middle;whiteSpace=wrap;rounded=0;spacing=2;spacingBottom=0;fontFamily=Comic Sans MS;" parent="1" vertex="1">
          <mxGeometry x="540" y="192.5" width="130" height="30" as="geometry" />
        </mxCell>
        <mxCell id="P7D8G5JNVnCzqiyZau9e-54" value="" style="html=1;shadow=0;dashed=0;align=center;verticalAlign=middle;shape=mxgraph.arrows2.bendArrow;dy=5;dx=20;notch=0;arrowHead=30.63;rounded=1;rotation=-180;strokeColor=#b85450;fillColor=#f8d4d3;" parent="1" vertex="1">
          <mxGeometry x="113" y="235" width="50" height="185" as="geometry" />
        </mxCell>
        <mxCell id="P7D8G5JNVnCzqiyZau9e-64" value="$$\color{brown}2$$" style="text;html=1;align=center;verticalAlign=middle;whiteSpace=wrap;rounded=0;" parent="1" vertex="1">
          <mxGeometry x="164" y="595" width="60" height="30" as="geometry" />
        </mxCell>
        <mxCell id="P7D8G5JNVnCzqiyZau9e-65" value="$$\color{brown}1$$" style="text;html=1;align=center;verticalAlign=middle;whiteSpace=wrap;rounded=0;" parent="1" vertex="1">
          <mxGeometry x="251" y="595" width="60" height="30" as="geometry" />
        </mxCell>
        <mxCell id="P7D8G5JNVnCzqiyZau9e-66" value="$$\color{orange}3$$" style="text;html=1;align=center;verticalAlign=middle;whiteSpace=wrap;rounded=0;" parent="1" vertex="1">
          <mxGeometry x="164" y="640" width="60" height="30" as="geometry" />
        </mxCell>
        <mxCell id="P7D8G5JNVnCzqiyZau9e-67" value="$$\color{orange}2$$" style="text;html=1;align=center;verticalAlign=middle;whiteSpace=wrap;rounded=0;" parent="1" vertex="1">
          <mxGeometry x="251" y="640" width="60" height="30" as="geometry" />
        </mxCell>
        <mxCell id="P7D8G5JNVnCzqiyZau9e-68" value="$$\color{green}1$$" style="text;html=1;align=center;verticalAlign=middle;whiteSpace=wrap;rounded=0;" parent="1" vertex="1">
          <mxGeometry x="164" y="685" width="60" height="30" as="geometry" />
        </mxCell>
        <mxCell id="P7D8G5JNVnCzqiyZau9e-69" value="$$\color{green}1$$" style="text;html=1;align=center;verticalAlign=middle;whiteSpace=wrap;rounded=0;" parent="1" vertex="1">
          <mxGeometry x="251" y="685" width="60" height="30" as="geometry" />
        </mxCell>
        <mxCell id="P7D8G5JNVnCzqiyZau9e-70" value="$$(\lambda_i I-A)v_i=0$$" style="text;html=1;align=center;verticalAlign=middle;whiteSpace=wrap;rounded=0;" parent="1" vertex="1">
          <mxGeometry x="407" y="410" width="60" height="30" as="geometry" />
        </mxCell>
        <mxCell id="P7D8G5JNVnCzqiyZau9e-72" value="" style="html=1;shadow=0;dashed=0;align=center;verticalAlign=middle;shape=mxgraph.arrows2.bendArrow;dy=5;dx=20;notch=0;arrowHead=30.63;rounded=1;rotation=-180;strokeColor=#c88c5b;fillColor=#ffe4cf;flipH=1;" parent="1" vertex="1">
          <mxGeometry x="-16" y="351.5" width="64" height="319.5" as="geometry" />
        </mxCell>
        <mxCell id="P7D8G5JNVnCzqiyZau9e-73" value="$$n=6$$" style="text;html=1;align=center;verticalAlign=middle;whiteSpace=wrap;rounded=0;" parent="1" vertex="1">
          <mxGeometry x="164" y="730" width="60" height="30" as="geometry" />
        </mxCell>
        <mxCell id="P7D8G5JNVnCzqiyZau9e-76" value="" style="html=1;shadow=0;dashed=0;align=center;verticalAlign=middle;shape=mxgraph.arrows2.bendArrow;dy=5;dx=20;notch=0;arrowHead=30.63;rounded=1;rotation=-180;strokeColor=#b85450;fillColor=#f8d4d3;flipH=1;" parent="1" vertex="1">
          <mxGeometry x="244.5" y="309" width="47.5" height="130" as="geometry" />
        </mxCell>
        <mxCell id="P7D8G5JNVnCzqiyZau9e-84" value="特征向量&lt;div&gt;Eigenvector&lt;/div&gt;" style="text;html=1;align=center;verticalAlign=middle;whiteSpace=wrap;rounded=0;fontFamily=Comic Sans MS;" parent="1" vertex="1">
          <mxGeometry x="281" y="410" width="120" height="30" as="geometry" />
        </mxCell>
        <mxCell id="P7D8G5JNVnCzqiyZau9e-87" value="广义特征向量&lt;div&gt;Generalized Eigenvector&lt;/div&gt;" style="text;html=1;align=center;verticalAlign=middle;whiteSpace=wrap;rounded=0;fontFamily=Comic Sans MS;" parent="1" vertex="1">
          <mxGeometry x="281" y="470" width="120" height="30" as="geometry" />
        </mxCell>
        <mxCell id="P7D8G5JNVnCzqiyZau9e-89" value="$$(\lambda_i I-A)v_{i1}=v_i$$" style="text;html=1;align=center;verticalAlign=middle;whiteSpace=wrap;rounded=0;" parent="1" vertex="1">
          <mxGeometry x="417" y="450" width="60" height="30" as="geometry" />
        </mxCell>
        <mxCell id="P7D8G5JNVnCzqiyZau9e-90" value="$$(\lambda_i I-A)v_{i2}=v_{i1}$$" style="text;html=1;align=center;verticalAlign=middle;whiteSpace=wrap;rounded=0;" parent="1" vertex="1">
          <mxGeometry x="417" y="470" width="60" height="30" as="geometry" />
        </mxCell>
        <mxCell id="P7D8G5JNVnCzqiyZau9e-93" value="$$...$$" style="text;html=1;align=center;verticalAlign=middle;whiteSpace=wrap;rounded=0;" parent="1" vertex="1">
          <mxGeometry x="417" y="490" width="60" height="30" as="geometry" />
        </mxCell>
        <mxCell id="P7D8G5JNVnCzqiyZau9e-95" value="$$Q=\begin{bmatrix}\color{brown}v_1&amp;amp;\color{brown}v_{11}&amp;amp;\color{orange}v_2&amp;amp;\color{orange}v_{21}&amp;amp;\color{orange}v_{22}&amp;amp;\color{green}v_3\end{bmatrix}$$" style="text;html=1;align=center;verticalAlign=middle;whiteSpace=wrap;rounded=0;" parent="1" vertex="1">
          <mxGeometry x="540" y="540" width="210" height="80" as="geometry" />
        </mxCell>
        <mxCell id="P7D8G5JNVnCzqiyZau9e-100" value="" style="shape=flexArrow;endArrow=classic;html=1;rounded=1;shadow=0;dashed=0;strokeColor=none;align=center;verticalAlign=middle;fontFamily=Helvetica;fontSize=12;fontColor=default;fillColor=#ffdbdb;" parent="1" edge="1">
          <mxGeometry width="50" height="50" relative="1" as="geometry">
            <mxPoint x="323.5" y="609.58" as="sourcePoint" />
            <mxPoint x="410" y="610" as="targetPoint" />
          </mxGeometry>
        </mxCell>
        <mxCell id="P7D8G5JNVnCzqiyZau9e-101" value="" style="shape=flexArrow;endArrow=classic;html=1;rounded=1;shadow=0;dashed=0;strokeColor=none;align=center;verticalAlign=middle;fontFamily=Helvetica;fontSize=12;fontColor=default;fillColor=#F5EFC7;" parent="1" edge="1">
          <mxGeometry width="50" height="50" relative="1" as="geometry">
            <mxPoint x="339" y="654.6600000000001" as="sourcePoint" />
            <mxPoint x="520" y="655" as="targetPoint" />
          </mxGeometry>
        </mxCell>
        <mxCell id="P7D8G5JNVnCzqiyZau9e-102" value="" style="shape=flexArrow;endArrow=classic;html=1;rounded=1;shadow=0;dashed=0;strokeColor=none;align=center;verticalAlign=middle;fontFamily=Helvetica;fontSize=12;fontColor=default;fillColor=#C9F5D0;" parent="1" edge="1">
          <mxGeometry width="50" height="50" relative="1" as="geometry">
            <mxPoint x="350" y="700.0000000000001" as="sourcePoint" />
            <mxPoint x="620" y="700" as="targetPoint" />
          </mxGeometry>
        </mxCell>
        <mxCell id="P7D8G5JNVnCzqiyZau9e-103" value="$$\color{brown}v_1$$" style="text;html=1;align=center;verticalAlign=middle;whiteSpace=wrap;rounded=0;" parent="1" vertex="1">
          <mxGeometry x="430" y="595" width="60" height="30" as="geometry" />
        </mxCell>
        <mxCell id="P7D8G5JNVnCzqiyZau9e-104" value="$$\color{brown}v_{11}$$" style="text;html=1;align=center;verticalAlign=middle;whiteSpace=wrap;rounded=0;" parent="1" vertex="1">
          <mxGeometry x="480" y="595" width="60" height="30" as="geometry" />
        </mxCell>
        <mxCell id="P7D8G5JNVnCzqiyZau9e-105" value="$$\color{orange}v_2$$" style="text;html=1;align=center;verticalAlign=middle;whiteSpace=wrap;rounded=0;" parent="1" vertex="1">
          <mxGeometry x="530" y="640" width="60" height="30" as="geometry" />
        </mxCell>
        <mxCell id="P7D8G5JNVnCzqiyZau9e-106" value="$$\color{orange}v_{21}$$" style="text;html=1;align=center;verticalAlign=middle;whiteSpace=wrap;rounded=0;" parent="1" vertex="1">
          <mxGeometry x="590" y="640" width="60" height="30" as="geometry" />
        </mxCell>
        <mxCell id="P7D8G5JNVnCzqiyZau9e-107" value="$$\color{orange}v_{22}$$" style="text;html=1;align=center;verticalAlign=middle;whiteSpace=wrap;rounded=0;" parent="1" vertex="1">
          <mxGeometry x="650" y="640" width="60" height="30" as="geometry" />
        </mxCell>
        <mxCell id="P7D8G5JNVnCzqiyZau9e-110" value="" style="rounded=1;whiteSpace=wrap;html=1;arcSize=6;" parent="1" vertex="1">
          <mxGeometry x="-720" y="221.5" width="430" height="285" as="geometry" />
        </mxCell>
        <mxCell id="P7D8G5JNVnCzqiyZau9e-112" value="&lt;font face=&quot;Comic Sans MS&quot; style=&quot;font-size: 15px;&quot;&gt;Department&amp;nbsp; of Linear Algebra&lt;/font&gt;" style="text;html=1;align=center;verticalAlign=middle;whiteSpace=wrap;rounded=0;fontSize=15;" parent="1" vertex="1">
          <mxGeometry x="-700" y="235" width="290" height="30" as="geometry" />
        </mxCell>
        <mxCell id="P7D8G5JNVnCzqiyZau9e-113" value="" style="shape=parallelogram;perimeter=parallelogramPerimeter;whiteSpace=wrap;html=1;fixedSize=1;size=5;fillColor=#fff2cc;strokeColor=#d6b656;" parent="1" vertex="1">
          <mxGeometry x="-390" y="245" width="45" height="20" as="geometry" />
        </mxCell>
        <mxCell id="P7D8G5JNVnCzqiyZau9e-114" value="" style="shape=parallelogram;perimeter=parallelogramPerimeter;whiteSpace=wrap;html=1;fixedSize=1;size=5;fillColor=#dae8fc;strokeColor=#6c8ebf;" parent="1" vertex="1">
          <mxGeometry x="-375" y="235" width="45" height="20" as="geometry" />
        </mxCell>
        <mxCell id="P7D8G5JNVnCzqiyZau9e-115" value="" style="rounded=0;whiteSpace=wrap;html=1;" parent="1" vertex="1">
          <mxGeometry x="-690" y="275" width="140" height="145" as="geometry" />
        </mxCell>
        <mxCell id="gpWzD4kkAzxPZNYDR77z-3" value="" style="rounded=1;whiteSpace=wrap;html=1;strokeColor=#FF8B87;fillColor=#f7f3f0;" vertex="1" parent="1">
          <mxGeometry x="200" y="195" width="60" height="35" as="geometry" />
        </mxCell>
        <mxCell id="gpWzD4kkAzxPZNYDR77z-4" value="$$Av=\lambda v$$" style="text;html=1;align=center;verticalAlign=middle;whiteSpace=wrap;rounded=0;" vertex="1" parent="1">
          <mxGeometry x="200" y="197.5" width="60" height="30" as="geometry" />
        </mxCell>
      </root>
    </mxGraphModel>
  </diagram>
</mxfile>
